<?xml version="1.0" standalone="no"?><!DOCTYPE svg PUBLIC "-//W3C//DTD SVG 1.1//EN" "http://www.w3.org/Graphics/SVG/1.1/DTD/svg11.dtd"><svg t="1638089979469" class="icon" viewBox="0 0 1024 1024" version="1.1" xmlns="http://www.w3.org/2000/svg" p-id="7102" xmlns:xlink="http://www.w3.org/1999/xlink" width="200" height="200"><defs><style type="text/css"></style></defs><path d="M0 0h1024v1024H0V0z" fill="#202425" opacity=".01" p-id="7103"></path><path d="M345.634133 343.108267A68.266667 68.266667 0 0 1 405.7088 307.2h212.548267a68.266667 68.266667 0 0 1 60.1088 35.908267l284.398933 528.1792a34.133333 34.133333 0 0 1-30.037333 50.312533H91.272533a34.133333 34.133333 0 0 1-30.037333-50.312533l284.398933-528.1792z" fill="#11AA66" p-id="7104"></path><path d="M648.533333 648.533333a136.533333 136.533333 0 1 1-273.066666 0 136.533333 136.533333 0 0 1 273.066666 0z" fill="#FFFFFF" p-id="7105"></path><path d="M34.133333 307.2a204.8 204.8 0 0 1 204.8-204.8h546.133334a204.8 204.8 0 0 1 204.8 204.8v68.266667a34.133333 34.133333 0 0 1-34.133334 34.133333h-166.638933a34.133333 34.133333 0 0 1-30.5152-18.875733l-57.0368-114.039467A68.266667 68.266667 0 0 0 640.443733 238.933333h-256.9216a68.266667 68.266667 0 0 0-61.064533 37.751467l-57.002667 114.039467a34.133333 34.133333 0 0 1-30.549333 18.875733H68.266667a34.133333 34.133333 0 0 1-34.133334-34.133333V307.2z" fill="#FFAA44" p-id="7106"></path></svg>